<svg id="Layer_2" data-name="Layer 2" xmlns="http://www.w3.org/2000/svg" viewBox="0 0 805.79 270.57"><defs><style>.cls-1{fill:#dac245;}.cls-2{fill:#101824;}</style></defs><title>Artboard 1LOGO</title><path class="cls-1" d="M63.3,48.75l.53,86.57h0c0,41,41.3,58.25,41.3,58.25,25.42,13.5,59.84,2.91,59.84,2.91l-14.83-21.71c-22.24,5-36-4.5-36-4.5-19.6-9.8-25.16-32-25.16-32L88.45,73.9h56.66c34.95,6.09,63,48.45,63,48.45L224,102.49c-44.21-51.89-74.4-53.74-74.4-53.74Z"/><path class="cls-1" d="M187.47,169.21l43.25,67.25,43.2-66.32-22-32.37L236.39,157l8.54,12.12-14.21,21.44-15-21.84C283.32,76.55,308.2,75,308.2,75h64.08v60.89s-7.95,46.6-61.43,39.72L295,196.22c93.19,23.83,103.78-60.37,103.78-60.37V48.75H305S269.55,48.75,187.47,169.21Z"/><circle class="cls-2" cx="139.29" cy="124.73" r="22.77"/><circle class="cls-2" cx="321.97" cy="124.73" r="22.77"/><path class="cls-2" d="M481.93,166.57q-16.38,0-26.24-10.79t-9.86-28.09q0-18.59,10.05-29.65T483.22,87q15.94,0,25.7,10.74t9.75,28.09q0,18.85-10,29.81T481.93,166.57Zm.64-71.43q-12.13,0-19.71,8.75t-7.57,23q0,14.24,7.38,22.91t19.26,8.67q12.68,0,20-8.27t7.3-23.15q0-15.26-7.09-23.58T482.57,95.14Z"/><path class="cls-2" d="M655.25,88.26l-21.75,77H622.92L607.07,109a35.15,35.15,0,0,1-1.23-7.85h-.22a39.84,39.84,0,0,1-1.39,7.74l-16,56.4H577.8l-22.56-77h9.94l16.38,59.09a38.89,38.89,0,0,1,1.29,7.73h.27a45.5,45.5,0,0,1,1.66-7.73l17-59.09h8.65l16.33,59.52a44.24,44.24,0,0,1,1.29,7.19h.21a43.2,43.2,0,0,1,1.45-7.41l15.74-59.3Z"/><path class="cls-2" d="M736.79,165.29h-40v-77h9v68.86h30.94Z"/></svg>