<svg id="Layer_2" data-name="Layer 2" xmlns="http://www.w3.org/2000/svg" viewBox="0 0 805.79 270.57"><defs><style>.cls-1{fill:#54A9D8;}.cls-2,.cls-3{fill:#101824;}.cls-3{font-size:123px;font-family:Nunito-ExtraBold, Nunito;font-weight:800;}.cls-4{letter-spacing:-0.02em;}</style></defs><title>Artboard 1LOGO</title><path class="cls-1" d="M63.3,48.75l.53,86.57h0c0,41,41.3,58.25,41.3,58.25,25.42,13.5,59.84,2.91,59.84,2.91l-14.83-21.71c-22.24,5-36-4.5-36-4.5-19.6-9.8-25.16-32-25.16-32L88.45,73.9h56.66c34.95,6.09,63,48.45,63,48.45L224,102.49c-44.21-51.89-74.4-53.74-74.4-53.74Z"/><path class="cls-1" d="M187.47,169.21l43.25,67.25,43.2-66.32-22-32.37L236.39,157l8.54,12.12-14.21,21.44-15-21.84C283.32,76.55,308.2,75,308.2,75h64.08v60.89s-7.95,46.6-61.43,39.72L295,196.22c93.19,23.83,103.78-60.37,103.78-60.37V48.75H305S269.55,48.75,187.47,169.21Z"/><circle class="cls-2" cx="139.29" cy="124.73" r="22.77"/><circle class="cls-2" cx="321.97" cy="124.73" r="22.77"/><text class="cls-3" transform="translate(432.26 173.83) scale(1.04 1)"><tspan class="cls-4">O</tspan><tspan x="96.89" y="0">WL</tspan></text></svg>