<svg id="Layer_2" data-name="Layer 2" xmlns="http://www.w3.org/2000/svg" viewBox="0 0 291.21 270.57"><defs><style>.cls-1{fill:#dac245;}.cls-2{fill:#101824;}</style></defs><title>Artboard 4LOGO</title><path class="cls-1" d="M0,56.64.46,131.8h0c0,35.63,35.86,50.57,35.86,50.57,22.06,11.72,51.94,2.53,51.94,2.53L75.39,166.05c-19.31,4.37-31.26-3.91-31.26-3.91-17-8.5-21.83-27.81-21.83-27.81l-.46-55.85H71c30.34,5.29,54.71,42.06,54.71,42.06l13.79-17.24c-38.39-45-64.59-46.66-64.59-46.66Z"/><path class="cls-1" d="M107.8,161.22l37.54,58.38L182.84,162l-19.13-28.1-13.45,16.72,7.41,10.52-12.33,18.61-13-19c58.67-80,80.28-81.42,80.28-81.42h55.62v52.86s-6.9,40.46-53.32,34.48l-13.8,17.93c80.91,20.68,90.1-52.41,90.1-52.41V56.64H209.85S179.05,56.64,107.8,161.22Z"/><circle class="cls-2" cx="65.97" cy="122.61" r="19.77"/><circle class="cls-2" cx="224.56" cy="122.61" r="19.77"/></svg>